<?xml version="1.0" encoding="UTF-8" standalone="no"?>
<!DOCTYPE svg PUBLIC "-//W3C//DTD SVG 1.1//EN"
 "http://www.w3.org/Graphics/SVG/1.1/DTD/svg11.dtd">
<!-- Generated by graphviz version 14.1.5 (20260411.2331)
 -->
<!-- Title: G Pages: 1 -->
<svg width="164pt" height="306pt"
 viewBox="0.00 0.00 164.00 306.00" xmlns="http://www.w3.org/2000/svg" xmlns:xlink="http://www.w3.org/1999/xlink">
<g id="graph0" class="graph" transform="scale(1 1) rotate(0) translate(4 302.48)">
<title>G</title>
<polygon fill="none" stroke="none" points="-4,4 -4,-302.48 159.74,-302.48 159.74,4 -4,4"/>
<text fill="orange" xml:space="preserve" text-anchor="middle" x="77.87" y="-281.18" font-family="Times,serif" font-size="14.00">DoorMachine</text>
<!-- start -->
<g id="node1" class="node">
<title>start</title>
<polygon fill="none" stroke="orange" points="104.1,-273.98 52.47,-255.98 104.1,-237.98 155.74,-255.98 104.1,-273.98"/>
<polyline fill="none" stroke="orange" points="63.8,-259.93 63.8,-252.03"/>
<polyline fill="none" stroke="orange" points="92.77,-241.93 115.44,-241.93"/>
<polyline fill="none" stroke="orange" points="144.4,-252.03 144.4,-259.93"/>
<polyline fill="none" stroke="orange" points="115.44,-270.03 92.77,-270.03"/>
<text fill="orange" xml:space="preserve" text-anchor="middle" x="104.1" y="-250.93" font-family="Times,serif" font-size="14.00">Closed</text>
</g>
<!-- trigger_1 -->
<g id="node4" class="node">
<title>trigger_1</title>
<ellipse fill="none" stroke="orange" cx="60.1" cy="-172.99" rx="60.1" ry="28.99"/>
<text fill="orange" xml:space="preserve" text-anchor="middle" x="60.1" y="-176.19" font-family="Times,serif" font-size="14.00">Open</text>
<text fill="orange" xml:space="preserve" text-anchor="middle" x="60.1" y="-159.69" font-family="Times,serif" font-size="14.00">[Not spying]</text>
</g>
<!-- start&#45;&gt;trigger_1 -->
<g id="edge2" class="edge">
<title>start&#45;&gt;trigger_1</title>
<path fill="none" stroke="orange" d="M96.24,-240.5C91.83,-232.38 86.1,-221.84 80.51,-211.55"/>
<polygon fill="orange" stroke="orange" points="83.59,-209.89 75.74,-202.77 77.44,-213.23 83.59,-209.89"/>
</g>
<!-- state_1 -->
<g id="node2" class="node">
<title>state_1</title>
<polygon fill="none" stroke="orange" points="104.1,-108 46.1,-108 46.1,-72 104.1,-72 104.1,-108"/>
<text fill="orange" xml:space="preserve" text-anchor="middle" x="75.1" y="-84.95" font-family="Times,serif" font-size="14.00">Opened</text>
</g>
<!-- trigger_0 -->
<g id="node3" class="node">
<title>trigger_0</title>
<ellipse fill="none" stroke="orange" cx="111.1" cy="-18" rx="31.9" ry="18"/>
<text fill="orange" xml:space="preserve" text-anchor="middle" x="111.1" y="-12.95" font-family="Times,serif" font-size="14.00">Close</text>
</g>
<!-- state_1&#45;&gt;trigger_0 -->
<g id="edge1" class="edge">
<title>state_1&#45;&gt;trigger_0</title>
<path fill="none" stroke="orange" d="M84,-71.7C88.03,-63.87 92.88,-54.44 97.36,-45.73"/>
<polygon fill="orange" stroke="orange" points="100.4,-47.46 101.86,-36.97 94.18,-44.26 100.4,-47.46"/>
</g>
<!-- trigger_0&#45;&gt;start -->
<g id="edge3" class="edge">
<title>trigger_0&#45;&gt;start</title>
<path fill="none" stroke="orange" d="M116.36,-36.12C125.59,-68.77 142.54,-142.02 129.1,-201.98 126.89,-211.86 122.62,-222.07 118.22,-230.86"/>
<polygon fill="orange" stroke="orange" points="115.27,-228.96 113.65,-239.42 121.45,-232.26 115.27,-228.96"/>
</g>
<!-- trigger_1&#45;&gt;state_1 -->
<g id="edge4" class="edge">
<title>trigger_1&#45;&gt;state_1</title>
<path fill="none" stroke="orange" d="M65.35,-143.66C66.81,-135.79 68.39,-127.24 69.85,-119.36"/>
<polygon fill="orange" stroke="orange" points="73.28,-120.05 71.66,-109.58 66.4,-118.78 73.28,-120.05"/>
</g>
</g>
</svg>
